<svg width="440" height="267" viewBox="0 0 1101 667" fill="none" xmlns="http://www.w3.org/2000/svg"><g clip-path="url(#clip0)"><g fill="#2F2E41"><path d="M626.929 248.416c20.101 0 36.396-16.295 36.396-36.396s-16.295-36.396-36.396-36.396c-20.1 0-36.395 16.295-36.395 36.396s16.295 36.396 36.395 36.396z"/><path d="M637.069 176.626a36.399 36.399 0 0131.25 17.742 36.404 36.404 0 01.79 35.927 36.38 36.38 0 007.521-28.375 36.395 36.395 0 00-15.873-24.693 36.385 36.385 0 00-52.103 13.086 36.298 36.298 0 0128.415-13.687z"/><path d="M546.919 213.943c59.046 0 106.912-47.866 106.912-106.912C653.831 47.984 605.965.118 546.919.118c-59.046 0-106.913 47.866-106.913 106.913 0 59.046 47.867 106.912 106.913 106.912z"/><path d="M465.01 41.696a106.892 106.892 0 01148.167-11.21c-.874-.83-1.739-1.668-2.648-2.476a106.911 106.911 0 00-142.066 159.807c.909.808 1.842 1.569 2.77 2.34a106.894 106.894 0 01-6.223-148.46z"/></g><path d="M544.013 213.037c38.029 0 68.859-30.829 68.859-68.859 0-38.03-30.83-68.859-68.859-68.859-38.03 0-68.859 30.829-68.859 68.859 0 38.03 30.829 68.859 68.859 68.859z" fill="#FFB8B8"/><path d="M501.087 165.923s9.06 83.355-5.437 92.416c-14.496 9.06 83.356 21.745 83.356 21.745s-14.497-90.604 21.745-114.161h-99.664z" fill="#FFB8B8"/><path d="M483.12 57.104v68.859h15.947l20.295-21.745-2.718 21.745h70.489l-4.349-21.745 8.698 21.745h11.235V57.104H483.12z" fill="#2F2E41"/><path d="M473.248 141.648c3.002 0 5.436-4.462 5.436-9.967 0-5.504-2.434-9.966-5.436-9.966-3.003 0-5.436 4.462-5.436 9.966 0 5.505 2.433 9.967 5.436 9.967zM614.778 141.648c3.002 0 5.436-4.462 5.436-9.967 0-5.504-2.434-9.966-5.436-9.966-3.003 0-5.437 4.462-5.437 9.966 0 5.505 2.434 9.967 5.437 9.967z" fill="#FFB8B8"/><g><path d="M589.5 240s9-19-17.872-11.024C533.681 238.478 497.5 224 497.5 224s-12.506-8.379-12.653 4.433c-.148 12.812 10.102 35.227-28.954 44.004-39.057 8.776-76.404 2.707-87.244 31.543-10.84 28.835 11.66 144.678 11.66 144.678s39.673 93.487 63.118 105.034c23.445 11.546 209.506-32.954 209.506-32.954l41.18-104.089-14.842-113.192S679.271 278 617 278c0 0-27.176-1.094-27.5-17.5-.324-16.406 0-20.5 0-20.5z" fill="#D0CDE1"/><path d="M407.457 277.94s23.242 34.213 20.273 79.995c-2.97 45.782 36.428 154.918 36.428 154.918l21.139-7.451s-23.266-92.454-21.696-114.443c1.57-21.989-6.414-106.781-25.474-115.907-19.061-9.126-30.67 2.888-30.67 2.888zM621.489 286.056l-16.118 200.123 13.326 10.708s46.681-216.168 35.885-217.452l-21.968-2.611a9.964 9.964 0 00-7.544 2.228 9.979 9.979 0 00-3.581 7.004z" fill="#2F2E41"/><path d="M674.585 295s195.967 189.049 160.01 234.681C798.637 575.314 662 562.276 662 562.276l8.989-54.324 79.106-10.865-39.553-47.806-35.957 4.346V295zM402.436 281.629l-24.44 10.039s-162.351 146.591-166.04 183.366c-3.688 36.775 39.731 52.559 39.731 52.559l164.129 58.608 12.001-44.87-51.69-25.9s-18.515-11.471-40.231-22.913c-13.608-10.727-31.695-21.017-31.695-21.017s37.552-65.595 62.408-53.458c24.855 12.136 33.127 22.252 33.127 22.252l2.7-158.666z" fill="#D0CDE1"/></g><path d="M894.448 627.416h-733v2h733v-2z" fill="#"/><g><g fill="#3F3D56"><path d="M764.6 616.481v6.07a13.342 13.342 0 01-.91 4.87 13.713 13.713 0 01-.97 2 13.442 13.442 0 01-11.55 6.56H304.62a13.436 13.436 0 01-11.55-6.56 13.713 13.713 0 01-.97-2 13.342 13.342 0 01-.91-4.87v-6.07a13.44 13.44 0 013.932-9.498 13.44 13.44 0 019.498-3.932h25.74v-2.83a.564.564 0 01.164-.396.56.56 0 01.396-.164h13.43a.56.56 0 01.56.56v2.83h8.39v-2.83a.564.564 0 01.164-.396.56.56 0 01.396-.164h13.43a.56.56 0 01.56.56v2.83h8.4v-2.83a.564.564 0 01.164-.396.56.56 0 01.396-.164h13.43a.56.56 0 01.56.56v2.83h8.39v-2.83a.564.564 0 01.164-.396.56.56 0 01.396-.164h13.43a.56.56 0 01.56.56v2.83h8.39v-2.83a.564.564 0 01.164-.396.56.56 0 01.396-.164h13.43a.56.56 0 01.56.56v2.83h8.4v-2.83a.564.564 0 01.164-.396.56.56 0 01.396-.164h13.43a.56.56 0 01.56.56v2.83h8.39v-2.83a.564.564 0 01.164-.396.56.56 0 01.396-.164h105.2a.56.56 0 01.56.56v2.83h8.4v-2.83a.564.564 0 01.164-.396.56.56 0 01.396-.164h13.43a.564.564 0 01.56.56v2.83h8.39v-2.83a.564.564 0 01.164-.396.56.56 0 01.396-.164h13.43a.56.56 0 01.56.56v2.83h8.39v-2.83a.564.564 0 01.164-.396.56.56 0 01.396-.164h13.43a.56.56 0 01.56.56v2.83h8.4v-2.83a.564.564 0 01.164-.396.56.56 0 01.396-.164h13.43a.557.557 0 01.55.56v2.83h8.4v-2.83a.564.564 0 01.164-.396.56.56 0 01.396-.164h13.43a.56.56 0 01.56.56v2.83h8.39v-2.83a.564.564 0 01.164-.396.56.56 0 01.396-.164h13.43a.56.56 0 01.56.56v2.83h39.17a13.412 13.412 0 019.497 3.932 13.426 13.426 0 013.933 9.498z"/><path d="M728.642 360.847H562.2v-3.431h-75.472v3.431H319.599a11.259 11.259 0 00-11.259 11.258v227.912a11.257 11.257 0 0011.259 11.258h409.043a11.26 11.26 0 0011.259-11.258V372.105a11.254 11.254 0 00-6.95-10.401 11.256 11.256 0 00-4.309-.857z"/></g><path d="M524.448 465.416c13.807 0 25-11.193 25-25s-11.193-25-25-25-25 11.193-25 25 11.193 25 25 25z" stroke="#D0CDE1" stroke-width="2" stroke-miterlimit="10"/><path d="M516.448 474.416c13.807 0 25-11.193 25-25s-11.193-25-25-25-25 11.193-25 25 11.193 25 25 25z" fill="#D0CDE1"/></g><g><path d="M1040.02 663.551h-189v2.261h189v-2.261zM989 596.051h-2v-15a3 3 0 013-3h5a1.003 1.003 0 001-1v-10a1.002 1.002 0 00-1-1h-5a3 3 0 01-3-3v-5a1.002 1.002 0 00-1-1h-9a3 3 0 01-3-3v-1a1.002 1.002 0 00-1-1h-36a1 1 0 00-1 1v1a3 3 0 01-3 3h-9a1 1 0 00-1 1v5a3 3 0 01-3 3h-5a1 1 0 00-1 1v10a1.003 1.003 0 001 1h6a3 3 0 013 3v15h-2v-15a1.002 1.002 0 00-1-1h-6a3 3 0 01-3-3v-10a3 3 0 013-3h5a1.003 1.003 0 001-1v-5a3 3 0 013-3h9a1.003 1.003 0 001-1v-1a3 3 0 013-3h36a3 3 0 013 3v1a1.003 1.003 0 001 1h9a3 3 0 013 3v5a1.003 1.003 0 001 1h5a3 3 0 013 3v10a3 3 0 01-3 3h-5a1 1 0 00-1 1v15z" fill="#3F3D56"/><path d="M986 666.051h-61a3 3 0 01-3-3v-43h2v43a1.003 1.003 0 001 1h61a1.003 1.003 0 001-1v-43h2v43a3 3 0 01-3 3z" fill="#3F3D56"/><path d="M999 603.051h-75a2 2 0 00-2 2v20a2 2 0 002 2h75c1.1 0 2-.896 2-2v-20c0-1.105-.9-2-2-2z" fill="#536DFE"/><path d="M992.5 621.051h-75a3 3 0 01-3-3v-20a3 3 0 013-3h75a3 3 0 013 3v20a3 3 0 01-3 3zm-75-24a1 1 0 00-1 1v20a1.003 1.003 0 001 1h75a1.003 1.003 0 001-1v-20a1.002 1.002 0 00-1-1h-75z" fill="#3F3D56"/><g fill="#D0CDE1"><path d="M948.709 500a249.65 249.65 0 01-2.095-54.111L948.709 416c-11.542 22.966-8.933 53.192 0 84zM957.709 505a183.508 183.508 0 01-1.008-32.209L957.709 455c-5.553 13.67-4.298 31.662 0 50z"/></g><g fill="#D0CDE1"><path d="M964.464 537.327a179.306 179.306 0 001.504-38.862L964.464 477c8.289 16.493 6.415 38.201 0 60.327zM958 540.918a131.856 131.856 0 00.724-23.132L958 505.009c3.988 9.817 3.087 22.739 0 35.909z"/></g></g><g><path opacity=".7" d="M196.478 574.547h-72.4l1-8.14c20.46-18.37 33.69-67.31 33.69-67.31a6.782 6.782 0 00-.87.18c-12 2.42-20.54 7.35-26.51 13.28l2.54-21.66c37.8-8.14 52.79-58.14 52.79-58.14-24.12 5.35-39.16 13.63-48.5 21.49l3.72-31.82c25.56 8.77 52-37.82 52-37.82l-1-.21.5-.32-.76.27c-28.25-6.09-43.35 10.06-48.25 16.77l.37-3.12c-.747 2-1.473 3.96-2.18 5.88v.08c-2 5.42-3.83 10.773-5.49 16.06-1.447 4.513-2.8 8.98-4.06 13.4v-.06s-1.17-28.46-31.18-35.95c0 0 3.15 62.07 26.93 51.91-2.2 9-4 17.66-5.56 26.07a427.588 427.588 0 00-2.6 16l-.14.16.14-.12-.06.41a379.942 379.942 0 00-1.7 13.78c.46-8.62-1.11-33.52-30.45-56.92 0 0-39 68.54 27.5 82l.44.38-.1-.31.6.13.27-3.52a369.299 369.299 0 00.23 44.1c.07 1 .14 2 .21 2.95h-73.23c-27.94 57.79 15.52 89.46 15.52 89.46h120c46.6-58.74 16.59-89.34 16.59-89.34z" fill="url(#paint0_linear)"/><path opacity=".6" d="M119.998 596.487s-19-83 23-190" stroke="#535461" stroke-width="3" stroke-miterlimit="10"/><path d="M140.888 411.987s14.61-26 49.61-18c0 0-28.93 49.26-55 33.13l5.39-15.13zM131.628 439.577s-1.13-26.59-30.13-33.59c0 0 3 58 26 48.5l4.13-14.91zM122.148 478.847s5.35-27.86 61.35-39.86c0 0-17.86 57.62-63.93 55.31l2.58-15.45z" fill="#3F3D56"/><path d="M117.608 510.117s5.89-29.13-29.11-56.13c0 0-38 64.67 27.48 76.83l1.63-20.7z" fill="#3F3D56"/><path d="M116.558 550.157s-4.06-41.17 39.94-49.17c0 0-16.07 57.49-40 67.74l.06-18.57z" fill="#3F3D56"/><path opacity=".3" d="M135.998 427.487s38-29 54-34M119.498 493.987s46-49 64-55M101.498 405.987s28 38 26 48M88.498 453.987s15 68 27 77M116.498 568.987s24-66 40-68" stroke="#D0CDE1" stroke-miterlimit="10"/><path d="M45.998 571.487h147s29 37-16 92h-116s-42-38-15-92z" fill="#6C63FF"/><path d="M215.02 663.551h-189v2.261h189v-2.261z" fill="#3F3D56"/></g></g><defs><linearGradient id="paint0_linear" x1="22605.4" y1="145040" x2="51844.4" y2="145040" gradientUnits="userSpaceOnUse"><stop stop-color="gray" stop-opacity=".25"/><stop offset=".54" stop-color="gray" stop-opacity=".12"/><stop offset="1" stop-color="gray" stop-opacity=".1"/></linearGradient><clipPath id="clip0"><path fill="#fff" d="M0 0h1101v666.051H0z"/></clipPath></defs></svg>