<svg width="618" height="165" viewBox="0 0 610 155" fill="none" xmlns="http://www.w3.org/2000/svg">
<g id="Group 7">
<g id="Group 6">
<path id="XMLID 50" d="M85.7234 134.781C86.4644 135.528 87.6711 135.534 88.4188 134.793C89.1664 134.052 89.1719 132.845 88.431 132.097C87.6901 131.35 86.4833 131.344 85.7356 132.085C84.988 132.826 84.9825 134.033 85.7234 134.781Z" fill="#D0CDE1"/>
<path id="XMLID 51" d="M80.9833 129.997C81.7242 130.745 82.9309 130.75 83.6786 130.009C84.4263 129.268 84.4317 128.062 83.6908 127.314C82.9499 126.566 81.7431 126.561 80.9955 127.302C80.2478 128.043 80.2423 129.25 80.9833 129.997Z" fill="#D0CDE1"/>
<path id="XMLID 53" d="M92.0857 138.493L101.924 148.421" stroke="#3F3D56" stroke-width="4" stroke-miterlimit="10" stroke-linecap="round"/>
<path id="XMLID 54" d="M106.843 153.385L112.835 159.431" stroke="#6C63FF" stroke-width="4" stroke-miterlimit="10" stroke-linecap="round"/>
<path id="XMLID 36" d="M68.697 125L82.3809 138.808" stroke="#6C63FF" stroke-width="4" stroke-miterlimit="10" stroke-linecap="round"/>
<path id="XMLID 35" d="M92.3857 151.612C93.1266 152.36 94.3333 152.365 95.081 151.624C95.8287 150.883 95.8341 149.676 95.0932 148.929C94.3523 148.181 93.1455 148.176 92.3979 148.917C91.6502 149.658 91.6447 150.864 92.3857 151.612Z" fill="#D0CDE1"/>
<path id="XMLID 34" d="M86.0356 145.204C86.7765 145.952 87.9833 145.957 88.7309 145.216C89.4786 144.475 89.4841 143.269 88.7431 142.521C88.0022 141.773 86.7955 141.768 86.0478 142.509C85.3001 143.25 85.2947 144.456 86.0356 145.204Z" fill="#3F3D56"/>
<path id="XMLID 33" d="M99.5529 156.137L104.83 161.462" stroke="#D0CDE1" stroke-width="4" stroke-miterlimit="10" stroke-linecap="round"/>
<path id="XMLID 73" d="M59.976 126.308L65.7894 132.175" stroke="#3F3D56" stroke-width="4" stroke-miterlimit="10" stroke-linecap="round"/>
<path id="XMLID 72" d="M70.7085 137.138L84.3924 150.947" stroke="#6C63FF" stroke-width="4" stroke-miterlimit="10" stroke-linecap="round"/>
<path id="XMLID 98" d="M84.4362 161.1L69.1424 145.667" stroke="#3F3D56" stroke-width="4" stroke-miterlimit="10" stroke-linecap="round"/>
<path id="XMLID 97" d="M53.747 132.839C54.4879 133.586 55.6947 133.592 56.4423 132.851C57.19 132.11 57.1955 130.903 56.4545 130.156C55.7136 129.408 54.5069 129.403 53.7592 130.143C53.0115 130.884 53.0061 132.091 53.747 132.839Z" fill="#D0CDE1"/>
<path id="XMLID 96" d="M58.4872 137.622C59.2281 138.37 60.4348 138.375 61.1825 137.634C61.9302 136.893 61.9356 135.687 61.1947 134.939C60.4538 134.191 59.247 134.186 58.4994 134.927C57.7517 135.668 57.7462 136.874 58.4872 137.622Z" fill="#D0CDE1"/>
<path id="XMLID 95" d="M62.8696 142.044C63.6105 142.792 64.8173 142.798 65.5649 142.057C66.3126 141.316 66.318 140.109 65.5771 139.361C64.8362 138.614 63.6295 138.608 62.8818 139.349C62.1341 140.09 62.1287 141.297 62.8696 142.044Z" fill="#D0CDE1"/>
<path id="XMLID 114" d="M67.6536 156.981C68.3946 157.728 69.6013 157.734 70.349 156.993C71.0966 156.252 71.1021 155.045 70.3612 154.297C69.6203 153.55 68.4135 153.544 67.6659 154.285C66.9182 155.026 66.9127 156.233 67.6536 156.981Z" fill="#D0CDE1"/>
<path id="XMLID 113" d="M63.2834 149.863L49.5995 136.054" stroke="#6C63FF" stroke-width="4" stroke-miterlimit="10" stroke-linecap="round"/>
<path id="XMLID 111" d="M43.3267 132.432C44.0676 133.18 45.2744 133.185 46.022 132.444C46.7697 131.703 46.7752 130.497 46.0342 129.749C45.2933 129.001 44.0866 128.996 43.3389 129.737C42.5912 130.478 42.5858 131.685 43.3267 132.432Z" fill="#3F3D56"/>
<path id="XMLID 132" d="M62.076 158.572L56.1731 152.616" stroke="#3F3D56" stroke-width="4" stroke-miterlimit="10" stroke-linecap="round"/>
<path id="XMLID 131" d="M51.3435 147.742L37.6596 133.934" stroke="#6C63FF" stroke-width="4" stroke-miterlimit="10" stroke-linecap="round"/>
<path id="XMLID 151" d="M36.5285 145.609C37.2694 146.356 38.4762 146.362 39.2239 145.621C39.9715 144.88 39.977 143.673 39.2361 142.926C38.4951 142.178 37.2884 142.173 36.5407 142.913C35.7931 143.654 35.7876 144.861 36.5285 145.609Z" fill="#D0CDE1"/>
<path id="XMLID 173" d="M33.621 152.783C34.3619 153.531 35.5686 153.536 36.3163 152.795C37.064 152.055 37.0694 150.848 36.3285 150.1C35.5876 149.352 34.3808 149.347 33.6332 150.088C32.8855 150.829 32.88 152.036 33.621 152.783Z" fill="#D0CDE1"/>
<path id="XMLID 172" d="M38.3611 157.567C39.102 158.314 40.3088 158.32 41.0564 157.579C41.8041 156.838 41.8096 155.631 41.0687 154.883C40.3277 154.136 39.121 154.13 38.3733 154.871C37.6257 155.612 37.6202 156.819 38.3611 157.567Z" fill="#D0CDE1"/>
<path id="XMLID 170" d="M29.9662 146.388L20.1281 136.46" stroke="#3F3D56" stroke-width="4" stroke-miterlimit="10" stroke-linecap="round"/>
<path id="XMLID 169" d="M15.209 131.496L9.1273 125.359" stroke="#6C63FF" stroke-width="4" stroke-miterlimit="10" stroke-linecap="round"/>
<path id="XMLID 191" d="M3 129.285L18.2938 144.718" stroke="#3F3D56" stroke-width="4" stroke-miterlimit="10" stroke-linecap="round"/>
<path id="XMLID 190" d="M22.3957 151.564C23.1366 152.312 24.3434 152.318 25.091 151.577C25.8387 150.836 25.8442 149.629 25.1032 148.881C24.3623 148.134 23.1556 148.128 22.4079 148.869C21.6602 149.61 21.6548 150.817 22.3957 151.564Z" fill="#6C63FF"/>
<path id="XMLID 189" d="M29.7418 156.27L35.5552 162.136" stroke="#3F3D56" stroke-width="4" stroke-miterlimit="10" stroke-linecap="round"/>
</g>
<g id="Group 5">
<path id="XMLID 62" d="M607.903 86.446C607.126 87.216 607.12 88.47 607.89 89.247C608.66 90.024 609.914 90.0297 610.691 89.2597C611.468 88.4897 611.474 87.2357 610.704 86.4587C609.934 85.6817 608.68 85.676 607.903 86.446Z" fill="#3F3D56"/>
<path id="XMLID 65" d="M612.487 63.871L598.137 78.0917" stroke="#D0CDE1" stroke-width="4" stroke-miterlimit="10" stroke-linecap="round"/>
<path id="XMLID 103" d="M594.151 71.6311L614.598 51.3689" stroke="#6C63FF" stroke-width="4" stroke-miterlimit="10" stroke-linecap="round"/>
<path id="XMLID 122" d="M590.822 64.5199L601.139 54.2958" stroke="#D0CDE1" stroke-width="4" stroke-miterlimit="10" stroke-linecap="round"/>
<path id="XMLID 121" d="M611.75 40.9919C610.973 41.7618 610.968 43.0159 611.738 43.7929C612.508 44.5699 613.762 44.5756 614.539 43.8056C615.316 43.0356 615.321 41.7815 614.551 41.0045C613.781 40.2276 612.527 40.2219 611.75 40.9919Z" fill="#3F3D56"/>
<path id="XMLID 120" d="M605.654 47.0333C604.877 47.8033 604.871 49.0574 605.641 49.8344C606.411 50.6114 607.665 50.6171 608.442 49.8471C609.219 49.0771 609.225 47.823 608.455 47.046C607.685 46.269 606.431 46.2634 605.654 47.0333Z" fill="#3F3D56"/>
<path id="XMLID 140" d="M582.615 62.4285L589.556 55.5505" stroke="#3F3D56" stroke-width="4" stroke-miterlimit="10" stroke-linecap="round"/>
<path id="XMLID 139" d="M595.464 49.6949L612.722 32.5929" stroke="#6C63FF" stroke-width="4" stroke-miterlimit="10" stroke-linecap="round"/>
<path id="XMLID 143" d="M608.736 26.1323L603.203 31.6161" stroke="#6C63FF" stroke-width="4" stroke-miterlimit="10" stroke-linecap="round"/>
<path id="XMLID 142" d="M597.763 37.0069L580.505 54.109" stroke="#6C63FF" stroke-width="4" stroke-miterlimit="10" stroke-linecap="round"/>
<path id="XMLID 179" d="M571.548 52.5745L593.871 30.4534" stroke="#6C63FF" stroke-width="4" stroke-miterlimit="10" stroke-linecap="round"/>
<path id="XMLID 184" d="M609.876 1.39419C609.099 2.16418 609.093 3.41825 609.863 4.19525C610.633 4.97225 611.887 4.97793 612.664 4.20794C613.441 3.43795 613.447 2.18387 612.677 1.40688C611.907 0.629879 610.653 0.624199 609.876 1.39419Z" fill="#3F3D56"/>
<path id="XMLID 183" d="M605.173 8.84254L598.233 15.7205" stroke="#3F3D56" stroke-width="4" stroke-miterlimit="10" stroke-linecap="round"/>
<path id="XMLID 182" d="M593.074 20.8326L586.134 27.7106" stroke="#3F3D56" stroke-width="4" stroke-miterlimit="10" stroke-linecap="round"/>
<path id="XMLID 181" d="M581.35 32.4508L567 46.6715" stroke="#D0CDE1" stroke-width="4" stroke-miterlimit="10" stroke-linecap="round"/>
</g>
</g>
</svg>
